<svg width="32" height="32" viewBox="0 0 32 32" fill="none" xmlns="http://www.w3.org/2000/svg">
<path d="M28.0228 6.04782C26.1317 3.61266 23.5569 1.78986 20.6241 0.809976C17.6912 -0.169911 14.5321 -0.262876 11.5461 0.542838C8.56009 1.34855 5.88144 3.01675 3.8489 5.33646C1.81636 7.65617 0.521235 10.5232 0.127314 13.5749C-0.266608 16.6266 0.258372 19.726 1.63586 22.481C3.01334 25.236 5.18146 27.5229 7.866 29.0525C10.5505 30.582 13.6309 31.2856 16.7176 31.0741C19.8042 30.8626 22.7584 29.7456 25.2067 27.8643C32.0404 22.6124 33.3016 12.846 28.0223 6.04782H28.0228Z" fill="#FF6C37"/>
<path d="M20.9182 9.91141L14.3225 16.5225L12.4586 14.6169C18.9502 8.16142 19.6018 8.74475 20.9187 9.91141H20.9182Z" fill="white"/>
<path d="M14.3225 16.7033C14.2641 16.7018 14.2083 16.6788 14.1661 16.6386L12.289 14.772C12.2468 14.7285 12.2231 14.6703 12.2231 14.6099C12.2231 14.5494 12.2468 14.4912 12.289 14.4477C18.6892 8.08315 19.5627 8.38113 21.0746 9.74223C21.0999 9.76237 21.1202 9.78811 21.1338 9.81738C21.1474 9.84666 21.1539 9.87868 21.1528 9.91091C21.1626 9.9741 21.1382 10.0388 21.0878 10.0796L14.4922 16.6391C14.4459 16.6813 14.3853 16.7044 14.3225 16.7038V16.7033ZM12.7842 14.6164L14.3225 16.1462L20.5795 9.92403C20.3634 9.6548 20.0552 9.47421 19.7136 9.41682C19.3721 9.35942 19.0213 9.42924 18.7283 9.61293C17.5942 10.1185 15.7694 11.6609 12.7842 14.6164Z" fill="#FF6C37"/>
<path d="M16.2128 18.3502L14.4139 16.5224L21.0096 10.0407C22.7826 11.7649 20.1493 14.6427 16.2128 18.3497V18.3502Z" fill="white"/>
<path d="M16.2128 18.5835C16.1551 18.579 16.1003 18.5563 16.0564 18.5189L14.2184 16.73C14.1908 16.6635 14.1908 16.5889 14.2184 16.5224C14.1989 16.4679 14.1989 16.4083 14.2184 16.3538L20.8141 9.79473C20.86 9.75187 20.9205 9.72801 20.9835 9.72801C21.0464 9.72801 21.107 9.75187 21.1529 9.79473C21.3665 9.99023 21.5352 10.2292 21.6476 10.4953C21.7601 10.7615 21.8136 11.0486 21.8045 11.3371C21.8045 13.0871 19.7969 15.2906 16.3819 18.5057C16.3363 18.5506 16.2763 18.5782 16.2123 18.5835H16.2128ZM14.7527 16.5224L16.2255 17.9866C18.8324 15.5366 21.3225 13.0089 21.3352 11.2978C21.3494 10.935 21.2288 10.5798 20.9964 10.2998L14.7527 16.5224Z" fill="#FF6C37"/>
<path d="M12.5105 14.6558L13.8142 15.9523C13.8225 15.9596 13.8291 15.9685 13.8337 15.9786C13.8383 15.9886 13.8406 15.9996 13.8406 16.0106C13.8406 16.0216 13.8383 16.0325 13.8337 16.0426C13.8291 16.0526 13.8225 16.0616 13.8142 16.0689L11.0636 16.6523C11.008 16.6642 10.9501 16.6577 10.8986 16.6339C10.8471 16.61 10.8049 16.5701 10.7783 16.5202C10.7517 16.4703 10.7423 16.4131 10.7514 16.3573C10.7606 16.3016 10.7878 16.2503 10.8289 16.2114L12.4323 14.6301C12.4323 14.6301 12.4846 14.6301 12.5105 14.6558Z" fill="white"/>
<path d="M10.9985 16.9113C10.9116 16.9102 10.8264 16.887 10.7511 16.8439C10.6758 16.8007 10.6129 16.7391 10.5684 16.6649C10.5182 16.5709 10.5001 16.4632 10.5165 16.3581C10.533 16.253 10.5833 16.1559 10.6598 16.0816L12.2499 14.4871C12.3072 14.4362 12.3815 14.408 12.4584 14.408C12.5353 14.408 12.6095 14.4362 12.6669 14.4871L13.9706 15.7836C14.0478 15.8565 14.0781 15.9668 14.0488 16.0689C14.0194 16.171 13.9334 16.2522 13.8273 16.2765L11.0767 16.8598L10.9985 16.9113ZM12.4586 14.9411L10.9858 16.4058L13.4236 15.8871L12.4586 14.9411Z" fill="#FF6C37"/>
<path d="M24.425 6.26852C23.4816 5.36339 21.9995 5.32547 21.0101 6.17956C20.0207 7.03365 19.8515 8.49975 20.6219 9.5546C21.3923 10.6095 22.8447 10.905 23.969 10.2352L22.196 8.47204L24.425 6.26852Z" fill="white"/>
<path d="M22.6653 10.8311C22.1232 10.8242 21.5952 10.6588 21.1471 10.3556C20.6989 10.0524 20.3503 9.6247 20.1449 9.12586C19.9396 8.6274 19.8857 8.08002 19.99 7.55143C20.0942 7.02285 20.352 6.53625 20.7315 6.15186C21.2534 5.6424 21.9555 5.35698 22.6868 5.35698C23.4181 5.35698 24.1202 5.6424 24.6421 6.15186C24.6919 6.19366 24.7203 6.2554 24.7203 6.32054C24.7202 6.35258 24.7131 6.38423 24.6996 6.41333C24.6861 6.44244 24.6665 6.46831 24.6421 6.48922L22.5304 8.47253L24.1337 10.0412C24.1597 10.0659 24.1792 10.0965 24.1905 10.1304C24.2019 10.1643 24.2047 10.2004 24.1987 10.2356C24.1949 10.2696 24.1835 10.3024 24.1655 10.3315C24.1475 10.3607 24.1233 10.3855 24.0946 10.4043C23.6639 10.6721 23.1687 10.8198 22.6609 10.8321L22.6653 10.8311ZM22.6653 5.80137C21.7365 5.80623 20.9055 6.36186 20.557 7.21109C20.2084 8.06032 20.3981 9.03788 21.0492 9.69024C21.3731 10.0142 21.7878 10.2333 22.239 10.3189C22.6902 10.4045 23.1569 10.3526 23.5779 10.17L22.0396 8.64024C22.0151 8.6208 21.9954 8.59613 21.9818 8.56807C21.9682 8.54 21.9612 8.50926 21.9612 8.47813C21.9612 8.44699 21.9682 8.41625 21.9818 8.38818C21.9954 8.36012 22.0151 8.33545 22.0396 8.31601L24.0731 6.28067C23.6689 5.9726 23.1746 5.80414 22.6653 5.80089V5.80137Z" fill="#FF6C37"/>
<path d="M24.4641 6.3074L22.2351 8.51092L24.008 10.274C24.1865 10.1722 24.3526 10.0503 24.5032 9.9109C24.9679 9.42248 25.2236 8.77362 25.2163 8.10129C25.209 7.42896 24.9393 6.78574 24.4641 6.3074Z" fill="white"/>
<path d="M23.9685 10.4685C23.9392 10.4701 23.9099 10.4651 23.8828 10.4539C23.8558 10.4427 23.8316 10.4256 23.812 10.4038L22.0391 8.64073C22.0146 8.62128 21.9949 8.59661 21.9813 8.56855C21.9677 8.54049 21.9607 8.50975 21.9607 8.47861C21.9607 8.44747 21.9677 8.41673 21.9813 8.38867C21.9949 8.36061 22.0146 8.33594 22.0391 8.31649L24.2549 6.15185C24.2763 6.11977 24.3054 6.09345 24.3395 6.07524C24.3736 6.05703 24.4117 6.0475 24.4504 6.0475C24.4892 6.0475 24.5273 6.05703 24.5614 6.07524C24.5955 6.09345 24.6246 6.11977 24.646 6.15185C24.9061 6.40531 25.1128 6.70784 25.2538 7.04172C25.3949 7.3756 25.4676 7.73412 25.4676 8.09629C25.4676 8.45845 25.3949 8.81697 25.2538 9.15085C25.1128 9.48473 24.9061 9.78726 24.646 10.0407C24.4925 10.2026 24.3169 10.3422 24.1244 10.4554C24.0759 10.4797 24.0199 10.4844 23.968 10.4685H23.9685ZM22.5347 8.47253L24.0076 9.93718C24.1089 9.86656 24.2048 9.78857 24.2945 9.70385C24.7275 9.27446 24.9713 8.69172 24.9725 8.08365C24.9735 7.53947 24.774 7.01377 24.4118 6.60588L22.5347 8.47253Z" fill="#FF6C37"/>
<path d="M21.192 10.1836C21.0154 10.0187 20.7823 9.92697 20.5401 9.92697C20.2979 9.92697 20.0648 10.0187 19.8883 10.1836L13.9838 16.0422L14.9614 17.0275L21.2052 11.5831C21.3004 11.4924 21.3759 11.3832 21.4271 11.2623C21.4783 11.1415 21.5041 11.0114 21.5028 10.8803C21.5016 10.7491 21.4734 10.6196 21.4199 10.4997C21.3664 10.3798 21.2889 10.2721 21.192 10.1831V10.1836Z" fill="white"/>
<path d="M14.9091 17.2613C14.8507 17.2599 14.7949 17.2369 14.7527 17.1967L13.7619 16.2113C13.7196 16.1678 13.696 16.1097 13.696 16.0492C13.696 15.9887 13.7196 15.9306 13.7619 15.8871L19.6668 10.0407C19.8369 9.87177 20.0541 9.75755 20.2903 9.71286C20.5264 9.66816 20.7706 9.69505 20.9912 9.79004C21.2118 9.88503 21.3986 10.0437 21.5274 10.2456C21.6562 10.4474 21.721 10.6831 21.7135 10.922C21.7068 11.0842 21.6675 11.2434 21.5981 11.3903C21.5287 11.5372 21.4305 11.6689 21.3093 11.7776L15.0655 17.222C15.0201 17.2539 14.9643 17.2678 14.9091 17.2609V17.2613ZM14.2184 16.0422L14.87 16.7033L20.9964 11.4013C21.148 11.2701 21.2384 11.0824 21.2443 10.8826C21.2501 10.6829 21.1709 10.4874 21.0228 10.3513C20.886 10.2159 20.7009 10.1398 20.5078 10.1398C20.3148 10.1398 20.1297 10.2159 19.9929 10.3513L14.2184 16.0422Z" fill="#FF6C37"/>
<path d="M9.4084 22.7184C9.39173 22.7409 9.38273 22.7682 9.38273 22.7962C9.38273 22.8241 9.39173 22.8514 9.4084 22.8739L9.66895 24.0017C9.67939 24.0681 9.66949 24.136 9.64054 24.1967C9.6116 24.2574 9.56494 24.308 9.50666 24.342C9.44858 24.3758 9.38122 24.3903 9.31428 24.3836C9.24734 24.3769 9.18428 24.3492 9.13417 24.3045L7.34851 22.5934L12.9147 17.0144H14.8441L16.1478 18.3108C14.1141 20.079 11.8466 21.562 9.4084 22.7184Z" fill="white"/>
<path d="M9.29109 24.6239C9.14347 24.621 8.9978 24.5607 8.90003 24.4552L7.19258 22.7573C7.16812 22.7378 7.14838 22.7132 7.13481 22.6851C7.12124 22.657 7.1142 22.6263 7.1142 22.5952C7.1142 22.564 7.12124 22.5333 7.13481 22.5052C7.14838 22.4772 7.16812 22.4525 7.19258 22.433L12.7974 16.8462C12.8288 16.813 12.8698 16.7904 12.9147 16.7816H14.8568C14.9074 16.7638 14.9626 16.7638 15.0132 16.7816L16.3169 18.078C16.3417 18.1007 16.3606 18.1291 16.3719 18.1607C16.3832 18.1923 16.3867 18.2261 16.382 18.2593C16.3829 18.2915 16.3763 18.3235 16.3627 18.3528C16.3492 18.382 16.329 18.4078 16.3037 18.428L16.1996 18.5189C14.1578 20.2117 11.9114 21.6443 9.51253 22.7835L9.76036 23.8335C9.77952 23.9145 9.78025 23.9987 9.76251 24.0801C9.74476 24.1614 9.70899 24.2377 9.65779 24.3035C9.6066 24.3694 9.54127 24.423 9.46658 24.4605C9.3919 24.498 9.30973 24.5185 9.22608 24.5204L9.29109 24.6239ZM7.70095 22.5886L9.23879 24.131C9.25312 24.1437 9.27165 24.1507 9.29085 24.1507C9.31005 24.1507 9.32858 24.1437 9.34291 24.131C9.35249 24.1178 9.35765 24.1019 9.35765 24.0856C9.35765 24.0692 9.35249 24.0533 9.34291 24.0401L9.08236 22.9123C9.06183 22.8314 9.07008 22.7459 9.10572 22.6703C9.14136 22.5947 9.20219 22.5338 9.27789 22.4977C11.6122 21.3737 13.8007 19.972 15.7954 18.3235L14.7263 17.2604H12.9797L7.70095 22.5886Z" fill="#FF6C37"/>
<path d="M6.00619 23.9239L7.30987 22.6275L9.31747 24.6239L6.12399 24.4037C6.06916 24.3994 6.01709 24.378 5.97521 24.3426C5.93333 24.3071 5.90377 24.2594 5.89077 24.2063C5.87776 24.1531 5.88196 24.0973 5.90278 24.0467C5.92359 23.996 5.95996 23.9532 6.00668 23.9244L6.00619 23.9239Z" fill="white"/>
<path d="M9.35608 24.8184L6.17533 24.5982C5.98664 24.5807 5.82435 24.4523 5.75787 24.2807C5.6914 24.1091 5.73197 23.9055 5.86248 23.7684L7.16617 22.4719C7.20991 22.4299 7.26836 22.4064 7.32919 22.4064C7.39002 22.4064 7.44846 22.4299 7.49221 22.4719L9.4866 24.4552C9.51421 24.4929 9.52909 24.5382 9.52909 24.5848C9.52909 24.6314 9.51421 24.6767 9.4866 24.7143C9.45645 24.7628 9.41032 24.7994 9.35608 24.8179V24.8184ZM6.17533 24.0926L8.78221 24.2613L7.3485 22.9259L6.17533 24.0926Z" fill="#FF6C37"/>
<path d="M15.0264 17.1709L12.3931 17.5729L13.9183 16.0694L15.0264 17.1709Z" fill="white"/>
<path d="M12.3931 17.8184C12.3494 17.8196 12.3062 17.8079 12.2691 17.7848C12.232 17.7617 12.2025 17.7283 12.1844 17.6887C12.1567 17.6511 12.1417 17.6057 12.1417 17.5591C12.1417 17.5125 12.1567 17.4671 12.1844 17.4296L13.6963 15.9129C13.7422 15.87 13.8028 15.8462 13.8657 15.8462C13.9286 15.8462 13.9892 15.87 14.0351 15.9129L15.1437 17.0144C15.1659 17.0493 15.1776 17.0898 15.1776 17.1311C15.1776 17.1724 15.1659 17.2128 15.1437 17.2477C15.1328 17.2903 15.1099 17.3289 15.0775 17.3588C15.0452 17.3887 15.0049 17.4087 14.9614 17.4164L12.3545 17.8184H12.3931ZM13.9182 16.4053L13.0711 17.2477L14.5312 17.0275L13.9182 16.4053Z" fill="#FF6C37"/>
<path d="M15.0264 17.17L13.1885 17.4033C13.1393 17.4144 13.0878 17.4094 13.0417 17.3892C12.9955 17.3689 12.9572 17.3344 12.9323 17.2907C12.9075 17.2471 12.8974 17.1966 12.9037 17.1469C12.9099 17.0971 12.9321 17.0506 12.967 17.0144L13.9187 16.0679L15.0264 17.17Z" fill="white"/>
<path d="M13.1362 17.6502C13.051 17.6494 12.9675 17.6262 12.8943 17.5829C12.821 17.5396 12.7606 17.4778 12.7192 17.4038C12.6694 17.3151 12.6501 17.2126 12.6642 17.112C12.6783 17.0113 12.7251 16.918 12.7974 16.8462L13.7491 15.8998C13.795 15.8569 13.8556 15.8331 13.9185 15.8331C13.9815 15.8331 14.042 15.8569 14.0879 15.8998L15.1961 17.0018C15.229 17.0328 15.2522 17.0727 15.2628 17.1166C15.2734 17.1605 15.271 17.2065 15.2558 17.2491C15.2407 17.2916 15.2134 17.3289 15.1774 17.3564C15.1414 17.3838 15.0981 17.4003 15.0528 17.4038L13.2281 17.6371L13.1362 17.6502ZM13.1362 17.1705L14.5181 17.0018L13.9056 16.3927L13.1234 17.1705H13.1362ZM24.4768 7.7983C24.4523 7.75739 24.4135 7.72687 24.3678 7.71254C24.3221 7.6982 24.2727 7.70104 24.229 7.72052C24.2074 7.73139 24.1883 7.74646 24.1726 7.76483C24.157 7.7832 24.1453 7.8045 24.1381 7.82746C24.1236 7.8738 24.1281 7.92398 24.1508 7.96697C24.2422 8.15802 24.2168 8.38405 24.0858 8.5503C24.0695 8.56632 24.0568 8.58552 24.0483 8.60669C24.0399 8.62786 24.036 8.65054 24.0369 8.67329C24.0374 8.71888 24.0548 8.76268 24.0858 8.79627C24.1192 8.80941 24.1564 8.80941 24.1899 8.79627C24.2203 8.80386 24.2521 8.80303 24.282 8.79385C24.3119 8.78468 24.3387 8.76753 24.3595 8.74426C24.4669 8.61357 24.5348 8.45535 24.5556 8.28788C24.5764 8.12041 24.5491 7.95051 24.4768 7.79781V7.7983Z" fill="#FF6C37"/>
</svg>
